<svg width="544" height="544" viewBox="0 0 544 544" fill="none" xmlns="http://www.w3.org/2000/svg">
<path d="M97.7438 275.407C149.427 275.407 191.324 233.51 191.324 181.827C191.324 130.144 149.427 88.2471 97.7438 88.2471C46.0611 88.2471 4.16394 130.144 4.16394 181.827C4.16394 233.51 46.0611 275.407 97.7438 275.407Z" fill="#F2EAE2"/>
<path d="M183.411 103.741C183.314 103.595 183.18 103.476 183.022 103.398C182.864 103.321 182.688 103.286 182.513 103.298C182.337 103.311 182.168 103.369 182.023 103.468C181.878 103.568 181.761 103.703 181.686 103.862C179.73 108.056 176.909 111.79 173.41 114.818C169.839 117.778 166.261 119.815 163.683 124.062C162.409 126.143 161.136 131.331 159.818 132.974C158.501 134.616 154.668 136.794 153.389 138.5C152.37 139.856 151.517 143.408 150.416 144.611C149.824 145.248 147.405 148.539 147.405 148.539C145.673 150.741 149.467 151.397 149.467 151.397C149.467 151.397 157.336 148.214 159.742 147.654C162.371 147.017 167.852 147.017 170.507 146.457C177.624 145.044 182.602 141.294 185.983 140.492C190.089 139.518 197.976 137.239 201.42 136.233C201.621 136.175 201.806 136.071 201.961 135.93C202.116 135.79 202.237 135.615 202.315 135.421C202.393 135.227 202.426 135.017 202.411 134.808C202.396 134.599 202.334 134.397 202.229 134.215L196.162 123.59C196.003 123.313 195.762 123.092 195.473 122.955C195.184 122.818 194.86 122.774 194.545 122.827L190.579 123.546L188.51 118.612L190.63 116.613C190.87 116.386 191.022 116.081 191.058 115.752C191.095 115.423 191.013 115.092 190.827 114.818L183.411 103.741Z" fill="#FE6571"/>
<path d="M189.688 124.484C187.129 125.435 184.739 126.789 182.609 128.495C178.477 131.818 172.493 136.707 168.413 138.725C164.332 140.743 148.443 149.643 148.373 149.63" stroke="#092C4E" stroke-width="2" stroke-linecap="round" stroke-linejoin="round"/>
<path d="M188.625 118.377C188.625 118.377 177.618 124.616 175.384 126.456C172.837 128.563 168.152 133.802 165.593 136.088C161.811 139.468 148.258 149.717 148.258 149.717" stroke="#092C4E" stroke-width="2" stroke-linecap="round" stroke-linejoin="round"/>
<path d="M475.705 102.781C475.101 102.795 474.515 102.574 474.071 102.164C473.626 101.754 473.359 101.188 473.324 100.585C473.152 95.3835 479.117 91.5257 485.814 92.678C488.539 93.1491 491.085 94.365 493.613 95.4981C494.93 92.9517 497.865 89.1831 501.347 87.7125C516.944 81.1365 523.469 94.7151 523.469 94.7151C524.259 94.1759 525.138 93.7814 526.066 93.5501C535.615 91.443 538.346 99.5978 537.633 102.781C537.633 102.781 488.373 102.437 475.883 102.781H475.705Z" fill="white"/>
<path d="M99.0171 199.654C98.7052 207.707 95.4904 300.313 95.5668 327.164C95.675 366.08 95.7896 420.598 95.8978 459.519" stroke="#092C4E" stroke-width="2" stroke-linecap="round" stroke-linejoin="round"/>
<path d="M97.1074 258.003C106.16 240.745 113.092 225.377 122.571 208.348" stroke="#092C4E" stroke-width="2" stroke-linecap="round" stroke-linejoin="round"/>
<path d="M464.69 458.296C352.84 460.683 232.58 459.665 232.58 459.665" stroke="#092C4E" stroke-width="2" stroke-linecap="round" stroke-linejoin="round"/>
<path d="M137.003 459.867C89.7866 459.937 57.04 459.663 57.04 459.663" stroke="#092C4E" stroke-width="2" stroke-linecap="round" stroke-linejoin="round"/>
<path d="M289.232 98.0832C291.581 89.3809 305.326 90.1511 307.821 91.2716C309.139 88.7252 313.2 84.9756 319.49 84.2117C334.03 82.461 337.582 92.1692 337.582 92.1692C337.582 92.1692 344.425 92.5193 344.903 98.1914C344.998 99.3309 344.266 100.54 343.108 100.528C334.361 100.445 300.736 100.636 291.295 100.528C290.794 100.536 290.307 100.365 289.921 100.045C289.536 99.7249 289.278 99.2774 289.194 98.7834V98.7834C289.162 98.5497 289.175 98.312 289.232 98.0832V98.0832Z" fill="white"/>
<path d="M470.737 458.112C470.737 458.112 493.655 458.214 496.411 457.794C499.168 457.374 500.021 446.017 504.261 445.8C508.5 445.584 507.978 454.929 507.978 454.929C507.978 454.929 523.149 435.615 528.668 438.906C534.187 442.197 519.845 455.349 519.845 455.349" stroke="#092C4E" stroke-width="2" stroke-linecap="round" stroke-linejoin="round"/>
<path d="M205.945 458.878C205.487 457.858 205.25 456.752 205.25 455.634C205.25 454.516 205.487 453.411 205.945 452.391C206.056 452.057 206.246 451.755 206.498 451.51C206.751 451.265 207.059 451.085 207.396 450.984C208.345 450.825 209.108 451.748 209.535 452.614C210.487 454.567 210.869 456.749 210.636 458.91C210.909 453.736 212.857 448.791 216.187 444.822C217.028 443.822 218.097 442.823 219.415 442.848C220.733 442.874 221.904 444.121 222.241 445.433C222.488 446.787 222.4 448.181 221.987 449.494C221.209 452.688 220.111 455.796 218.708 458.769C219.912 457.254 229.804 452.843 231.287 454.078C233.197 455.669 223.61 459.043 222.133 459.68" stroke="#092C4E" stroke-width="2" stroke-linecap="round" stroke-linejoin="round"/>
<path d="M57.0012 459.276C52.1185 442.566 49.1902 442.235 47.9297 442.566C44.5621 443.451 48.4836 455.794 49.8777 458.767C48.6745 457.252 42.2385 450.803 40.6088 451.765C39.412 452.484 44.9823 459.009 46.4528 459.646" stroke="#092C4E" stroke-width="2" stroke-linecap="round" stroke-linejoin="round"/>
<path d="M190.388 118.403C199.689 118.632 209.098 121.032 211.829 129.932C212.764 132.981 210.116 137.043 206.004 133.962C201.191 130.346 201.236 120.173 213.006 119.498C223.962 118.862 234.651 123.483 243.601 129.83" stroke="#092C4E" stroke-width="2" stroke-linecap="round" stroke-linejoin="round"/>
<path d="M136.137 146.82C138.047 146.584 150.25 147.66 154.07 158.641" stroke="#092C4E" stroke-width="2" stroke-linecap="round" stroke-linejoin="round"/>
<path d="M153.128 156.147C153.44 155.255 155.834 154.027 158.507 154.555C162.543 155.351 164.052 158.375 166.083 161.036C166.083 160.342 167.133 158.432 169.043 158.006C170.813 157.611 173.015 158.706 174.53 160.425" stroke="#092C4E" stroke-width="2" stroke-linecap="round" stroke-linejoin="round"/>
<path d="M364.318 277.101C359.862 283.957 329.356 331.714 312.48 352.722C307.743 358.617 307.667 366.409 310.334 373.488C317.846 393.388 329.871 428.872 331.979 433.882C332.893 436.033 334.417 437.869 336.363 439.163C338.309 440.457 340.591 441.153 342.928 441.165L365.559 441.343C370.76 441.343 372.765 438.593 370.015 432.061C363.649 416.942 347.734 365.168 347.734 365.168C347.734 365.168 382.505 312.68 386.885 303.628L392.615 302.991L368.844 359.266C367.176 362.545 368.169 366.116 369.971 369.318C378.291 384.157 398.026 422.882 405.397 433.08C408.249 437.027 409.077 441.146 416.487 440.974H442.747C449.431 440.579 451.659 436.339 448.743 431.794C433.249 407.603 410.548 362.195 410.548 362.195C410.548 362.195 423.795 333.446 432.192 313.387C439.831 295.142 436.292 281.455 421.58 271.161" stroke="#092C4E" stroke-width="2" stroke-linecap="round" stroke-linejoin="round"/>
<path d="M355.526 269.536C355.146 265.337 356.414 261.155 359.062 257.875C361.71 254.594 365.531 252.473 369.716 251.959C366.512 251.053 363.663 249.183 361.557 246.604C359.45 244.025 358.187 240.861 357.939 237.541L356.315 215.947C356.155 213.82 356.415 211.682 357.081 209.656C357.747 207.63 358.806 205.754 360.197 204.137C361.588 202.52 363.284 201.193 365.188 200.232C367.092 199.271 369.167 198.695 371.294 198.536L401.851 196.238C403.978 196.078 406.115 196.339 408.141 197.005C410.167 197.672 412.042 198.73 413.659 200.121C415.276 201.512 416.603 203.208 417.564 205.112C418.526 207.016 419.103 209.09 419.262 211.217L420.885 232.811C421.118 235.907 420.457 239.005 418.983 241.738C417.508 244.471 415.281 246.723 412.565 248.229C416.676 248.422 420.56 250.169 423.433 253.116C426.305 256.064 427.951 259.992 428.039 264.106C428.126 268.221 426.648 272.215 423.903 275.281C421.158 278.348 417.352 280.258 413.253 280.625L373.147 284.248C368.86 284.631 364.596 283.297 361.292 280.539C357.987 277.78 355.914 273.823 355.526 269.536V269.536Z" fill="#3098F3"/>
<path d="M364.667 164.9C366.917 161.882 370.022 159.611 373.58 158.381C373.955 158.26 374.337 158.152 374.713 158.056L374.573 158.095C375.202 155.621 376.672 153.442 378.73 151.932C380.788 150.422 383.307 149.673 385.855 149.815C388.404 149.956 390.825 150.978 392.703 152.707C394.582 154.436 395.801 156.763 396.153 159.291C397.81 158.979 399.515 159.05 401.14 159.5C402.764 159.95 404.264 160.766 405.523 161.886C406.782 163.007 407.768 164.401 408.404 165.962C409.039 167.523 409.309 169.209 409.191 170.89L396.504 171.807C396.361 171.115 396.183 170.431 395.969 169.757C394.63 165.653 391.842 162.178 388.127 159.98C384.412 157.782 380.024 157.012 375.782 157.814C380.022 157.017 384.408 157.79 388.12 159.989C391.832 162.188 394.617 165.662 395.956 169.763C396.128 170.292 396.268 170.82 396.389 171.349C394.926 172.168 393.387 172.844 391.793 173.367C391.78 172.792 391.657 172.226 391.43 171.699C390.98 170.687 390.163 169.884 389.143 169.452C388.124 169.021 386.978 168.994 385.939 169.376C384.9 169.758 384.045 170.522 383.548 171.511C383.051 172.5 382.949 173.642 383.262 174.703C375.903 174.417 369.123 170.61 364.591 166.192C364.597 166.192 363.986 165.785 364.667 164.9Z" fill="#FFCC00"/>
<path d="M370.301 187.466C370.938 184.837 375.222 184.283 375.222 184.283" stroke="#092C4E" stroke-width="2" stroke-linecap="round" stroke-linejoin="round"/>
<path d="M383.217 157.994C386.169 158.701 388.89 160.154 391.119 162.214C393.349 164.274 395.012 166.872 395.949 169.758C396.298 170.836 396.545 171.945 396.688 173.069C397.203 177.186 396.259 181.354 394.02 184.847C391.781 188.341 388.389 190.939 384.433 192.191C380.477 193.444 376.208 193.27 372.366 191.702C368.525 190.133 365.355 187.268 363.406 183.604" stroke="#082C4E" stroke-width="2" stroke-linecap="round" stroke-linejoin="round"/>
<path d="M511.263 323.254C510.321 318.002 489.568 277.368 479.223 261.294C448.851 214.097 423.591 204.14 409.198 201.136" stroke="#092C4E" stroke-width="2" stroke-linecap="round" stroke-linejoin="round"/>
<path d="M409.713 229.992C460.004 251.853 486.639 338.959 492.178 337.577C495.284 336.82 492.897 330.065 490.669 325.132C495.125 328.518 500.103 340.092 503 337.692C504.833 336.183 495.997 322.025 494.011 320.185C496.316 323.528 503.878 335.107 506.425 335.228C507.272 335.266 508.373 334.713 507.342 332.523C504.857 327.389 502.094 322.395 499.066 317.563C501.294 321.064 508.933 332.758 510.76 331.606C512.835 330.301 505.769 318.479 503.261 315.315" stroke="#092C4E" stroke-width="2" stroke-linecap="round" stroke-linejoin="round"/>
<path d="M363.35 441.158H345.843L347.034 445.671C343.615 446.772 332.226 451.343 328.738 452.33C325.491 453.253 324.587 457.015 327.165 458.779C328.342 459.52 329.709 459.902 331.1 459.88H361.561C365.056 459.88 368.729 457.13 368.054 453.552C367.424 450.236 363.35 441.158 363.35 441.158Z" fill="#082C4E"/>
<path d="M441.225 441.158H424.794L426.825 445.671C423.406 446.772 412.018 451.343 408.529 452.33C405.276 453.253 404.372 457.015 406.95 458.779C408.127 459.519 409.494 459.902 410.884 459.88H440.06C443.561 459.88 447.234 457.13 446.559 453.552C445.929 450.236 441.225 441.158 441.225 441.158Z" fill="#082C4E"/>
<path d="M362.726 206.229C350.471 216.733 342.463 222.571 329.731 226.174C325.377 227.409 319.074 226.594 319.915 221.348C322.034 208.063 361.523 183.541 366.864 180.447C377.578 174.24 386.356 171.694 385.325 169.625C384.294 167.556 375.267 170.427 369.964 171.636C373.344 169.784 376.145 168.95 379.647 167.639C383.148 166.327 385.23 165.614 384.854 164.01C384.555 162.737 381.168 163.316 378.615 163.736C375.324 164.284 369.366 166.372 367.297 166.919C368.372 166.283 372.116 165.009 374.936 163.774C379.182 161.865 382.83 160.209 382.187 158.943C381.276 157.147 368.99 161.4 364.999 163.106C368.481 161.438 381.817 157.536 379.099 154.83C378.24 153.964 368.143 156.046 352.547 163.844C331.66 174.285 315.942 185.883 304.006 199.889C283.94 223.443 292.337 245.036 306.342 251.186C312.186 253.732 324.931 256.005 337.109 251.771C354.507 245.724 366.233 234.793 368.462 231.719" stroke="#092C4E" stroke-width="2" stroke-linecap="round" stroke-linejoin="round"/>
<path d="M355.246 160.554C355.405 160.159 362.961 153.315 364.553 153.793C366.144 154.27 363.757 157.052 363.757 157.052" stroke="#092C4E" stroke-width="2" stroke-linecap="round" stroke-linejoin="round"/>
</svg>
