<svg width="481" height="436" viewBox="0 0 481 436" fill="none" xmlns="http://www.w3.org/2000/svg">
<path d="M361.215 394.701L341.16 402.971L343.558 408.665C340.042 412.116 330.748 421.183 327.111 424.549C323.688 427.68 324.905 432.854 329.154 433.424C331.094 433.555 333.031 433.125 334.733 432.185L362.56 418.336C367.122 416.052 369.257 413.29 366.965 408.729L361.215 394.701Z" fill="#082C4E"/>
<path d="M271.543 253.254C271.543 253.254 311.91 355.537 326.193 397.54C327.944 402.692 331.175 407.097 338.797 404.486L370.687 391.085C376.295 388.857 377.946 382.545 375.669 376.944C344.12 299.314 315.29 221.229 297.142 187.78" stroke="#092C4E" stroke-width="2" stroke-linecap="round" stroke-linejoin="round"/>
<path d="M242.009 198.457C214.61 240.446 166.394 347.019 151.982 392.979C150.844 396.623 152.338 400.338 157.32 402.708L193.139 415.162C200.142 416.429 203.01 411.604 204.056 408.757C226.708 347.197 272.967 246.495 283.642 224.433" stroke="#092C4E" stroke-width="2" stroke-linecap="round" stroke-linejoin="round"/>
<path d="M185.374 412.137L163.845 405.376L156.017 413.447C151.114 413.966 138.225 415.304 133.243 415.653C128.625 415.98 126.347 420.784 129.322 423.873C130.706 425.166 132.437 426.027 134.304 426.35L168.678 433.659C173.659 434.705 176.769 433.16 178.577 429.388L185.374 412.137Z" fill="#082C4E"/>
<path d="M383.497 432.57C258.455 435.239 114.291 434.1 114.291 434.1" stroke="#092C4E" stroke-width="2" stroke-linecap="round" stroke-linejoin="round"/>
<path d="M227.199 189.786C226.234 185.167 227.106 180.355 229.63 176.369C232.155 172.383 236.133 169.537 240.721 168.436C237.047 167.833 233.647 166.116 230.981 163.519C228.314 160.921 226.51 157.567 225.811 153.91L221.278 130.133C220.377 125.402 221.393 120.507 224.101 116.525C226.808 112.543 230.987 109.799 235.718 108.897L269.401 102.492C271.743 102.045 274.151 102.064 276.485 102.547C278.82 103.031 281.037 103.969 283.009 105.309C284.981 106.65 286.67 108.365 287.979 110.358C289.288 112.351 290.191 114.582 290.638 116.924L295.171 140.702C295.822 144.112 295.482 147.638 294.19 150.86C292.899 154.083 290.71 156.868 287.884 158.885C292.473 158.581 297.007 160.031 300.569 162.941C304.131 165.852 306.456 170.006 307.073 174.564C307.69 179.122 306.554 183.745 303.894 187.498C301.235 191.251 297.25 193.854 292.744 194.782L248.62 203.877C243.912 204.844 239.011 203.904 234.995 201.262C230.979 198.62 228.175 194.493 227.199 189.786Z" fill="#FFCC00"/>
<path d="M295.74 132.27C319.226 129.78 347.344 107.654 343.956 73.0234C339.686 29.3763 294.139 10.218 272.49 1.44299C271.472 1.03021 268.661 0.588973 267.594 1.71342" stroke="#092C4E" stroke-width="2" stroke-linecap="round" stroke-linejoin="round"/>
<path d="M272.412 14.4886C268.519 11.7842 262.448 9.07271 258.107 5.70648C253.88 2.45412 255.737 0.219456 259.865 1.3866C265.418 3.13453 270.749 5.52285 275.749 8.50337" stroke="#092C4E" stroke-width="2" stroke-linecap="round" stroke-linejoin="round"/>
<path d="M269.253 20.5376C267.986 19.4701 249.831 11.0723 252.343 8.04056C254.855 5.00882 269.779 13.5561 272.27 14.5595" stroke="#092C4E" stroke-width="2" stroke-linecap="round" stroke-linejoin="round"/>
<path d="M265.942 25.5957C253.744 18.4789 248.371 15.8528 249.88 13.7178C251.388 11.5828 262.241 17.3189 269.095 20.5072" stroke="#092C4E" stroke-width="2" stroke-linecap="round" stroke-linejoin="round"/>
<path d="M253.083 22.4944C252.464 23.2061 251.503 24.5298 254.549 26.4086C258.022 28.5436 266.206 32.1447 269.942 33.6179C290.047 41.5317 315.945 50.9614 312.999 79.9622C311.931 90.4595 301.612 101.49 285.777 104.337" stroke="#092C4E" stroke-width="2" stroke-linecap="round" stroke-linejoin="round"/>
<path d="M103.994 104.378C111.715 125.067 136.838 153.655 167.283 160.024C197.885 166.429 221.847 157.654 232.401 150.061" stroke="#092C4E" stroke-width="2" stroke-linecap="round" stroke-linejoin="round"/>
<path d="M117.508 107.367C114.846 103.446 112.199 97.4035 108.875 92.9697C105.673 88.6997 103.417 90.5429 104.541 94.6849C106.219 100.249 108.538 105.599 111.452 110.626" stroke="#092C4E" stroke-width="2" stroke-linecap="round" stroke-linejoin="round"/>
<path d="M123.593 104.268C122.533 102.994 114.342 84.7537 111.267 87.2304C108.193 89.707 116.605 104.73 117.58 107.264" stroke="#092C4E" stroke-width="2" stroke-linecap="round" stroke-linejoin="round"/>
<path d="M128.717 101.013C121.715 88.7363 119.16 83.3418 117.01 84.8292C114.861 86.3166 120.476 97.2266 123.593 104.094" stroke="#092C4E" stroke-width="2" stroke-linecap="round" stroke-linejoin="round"/>
<path d="M235.248 114.835C226.352 121.596 201.301 132.122 173.809 125.389C145.933 118.572 137.891 103.406 129.151 90.5172C129.151 90.5172 127.336 86.9589 125.173 88.3822" stroke="#092C4E" stroke-width="2" stroke-linecap="round" stroke-linejoin="round"/>
<path d="M63.6842 32.7095L4.88557 19.3442C4.21851 19.1865 3.51889 19.2403 2.88377 19.4981C2.24864 19.7559 1.7095 20.205 1.34109 20.783C0.972683 21.361 0.793302 22.0394 0.827793 22.724C0.862285 23.4085 1.10892 24.0654 1.53356 24.6035L38.9535 72.0225C39.1248 72.2414 39.3489 72.4133 39.6047 72.5221C39.8605 72.631 40.1398 72.6731 40.4163 72.6447C40.6929 72.6162 40.9577 72.5181 41.186 72.3595C41.4143 72.2009 41.5987 71.987 41.7219 71.7378L50.0984 54.7857C50.2602 54.456 50.3075 54.0817 50.2327 53.7221C50.158 53.3624 49.9655 53.038 49.6856 52.8001L47.5506 51.1419L52.7885 42.0111L56.1263 43.0217C56.362 43.0985 56.6147 43.1072 56.8551 43.0468C57.0956 42.9864 57.3141 42.8592 57.4855 42.6801L64.3604 34.9157C64.527 34.7475 64.6449 34.5373 64.7015 34.3075C64.7582 34.0776 64.7515 33.8367 64.6821 33.6104C64.6127 33.3841 64.4833 33.1808 64.3076 33.0221C64.1319 32.8635 63.9165 32.7554 63.6842 32.7095Z" fill="#3098F3"/>
<path d="M46.7468 50.8834L3.98926 22.1602" stroke="#092C4E" stroke-width="2" stroke-linecap="round" stroke-linejoin="round"/>
<path d="M51.8212 41.1264L3.94678 22.2314" stroke="#092C4E" stroke-width="2" stroke-linecap="round" stroke-linejoin="round"/>
<path d="M239.297 60.3704C243.121 58.6089 247.387 58.0409 251.538 58.7406C251.974 58.8165 252.401 58.9091 252.819 59.0182H252.662C254.607 56.9531 257.204 55.6227 260.016 55.2517C262.828 54.8808 265.682 55.4922 268.096 56.9825C270.509 58.4728 272.334 60.7507 273.261 63.431C274.189 66.1114 274.163 69.0299 273.187 71.6931C274.981 72.2699 276.619 73.2508 277.974 74.5602C279.329 75.8696 280.366 77.4726 281.004 79.2458C281.642 81.0189 281.864 82.9149 281.654 84.7875C281.444 86.6602 280.807 88.4597 279.792 90.0473L266.839 84.1759C267.073 83.4213 267.263 82.6538 267.408 81.8772C268.283 77.1362 267.402 72.2387 264.929 68.1C262.456 63.9613 258.561 60.8645 253.972 59.3883C258.562 60.869 262.455 63.9709 264.924 68.1138C267.393 72.2567 268.269 77.157 267.387 81.8986C267.273 82.5106 267.131 83.1013 266.967 83.6849C265.092 83.7093 263.218 83.5519 261.373 83.2152C261.699 82.5975 261.888 81.917 261.928 81.2199C261.968 80.5227 261.857 79.8252 261.604 79.1744C261.351 78.5236 260.961 77.9348 260.461 77.4479C259.96 76.9609 259.361 76.5871 258.704 76.3518C258.046 76.1166 257.346 76.0253 256.65 76.0841C255.954 76.143 255.279 76.3507 254.671 76.693C254.062 77.0354 253.534 77.5046 253.123 78.0687C252.711 78.6328 252.425 79.2788 252.285 79.9628C245.218 75.7497 240.592 68.3838 238.507 61.63C238.536 61.6016 238.151 60.8686 239.297 60.3704Z" fill="#FE6571"/>
<path d="M252.862 58.9966C255.454 59.694 257.878 60.9078 259.989 62.5651C262.1 64.2225 263.855 66.2892 265.148 68.6414C266.44 70.9936 267.244 73.5826 267.512 76.2532C267.779 78.9239 267.505 81.621 266.704 84.1828" stroke="#082C4E" stroke-width="1.02" stroke-linecap="round" stroke-linejoin="round"/>
<path d="M231.533 82.0559C233.004 82.5957 234.578 82.7999 236.138 82.6533C237.698 82.5068 239.205 82.0133 240.55 81.209C240.55 81.209 240.55 86.2832 235.832 87.1586" stroke="#092C4E" stroke-width="2" stroke-linecap="round" stroke-linejoin="round"/>
<path d="M251.552 58.741C256.725 59.7053 261.303 62.684 264.281 67.0225C267.258 71.361 268.391 76.7042 267.43 81.8776C267.197 83.1217 266.849 84.3415 266.391 85.5213C264.689 89.8318 261.532 93.4108 257.468 95.6379C253.404 97.8651 248.689 98.5999 244.14 97.7151C239.591 96.8303 235.495 94.3816 232.562 90.7936C229.629 87.2055 228.044 82.7042 228.081 78.0701L225.135 75.9849L229.106 71.9426" stroke="#082C4E" stroke-width="2" stroke-linecap="round" stroke-linejoin="round"/>
<path d="M394.785 432.363C394.785 432.363 420.405 432.476 423.487 432.007C426.568 431.537 427.522 418.841 432.262 418.599C437.001 418.357 436.418 428.804 436.418 428.804C436.418 428.804 453.377 407.212 459.547 410.891C465.718 414.571 449.684 429.274 449.684 429.274" stroke="#092C4E" stroke-width="2" stroke-linecap="round" stroke-linejoin="round"/>
<path d="M55.2505 47.105C64.9435 50.8982 73.9178 56.9973 73.3982 67.3878C73.2203 70.9461 68.8933 74.2127 65.7477 69.4089C62.0612 63.7724 65.9897 53.0973 78.6433 56.8834C90.4002 60.392 99.8726 69.3093 106.868 79.3937" stroke="#092C4E" stroke-width="2" stroke-linecap="round" stroke-linejoin="round"/>
<path d="M84.5295 433.217C84.0176 432.077 83.7529 430.841 83.7529 429.591C83.7529 428.342 84.0176 427.106 84.5295 425.965C84.6537 425.592 84.8661 425.254 85.1485 424.981C85.431 424.707 85.7752 424.505 86.1521 424.393C87.2125 424.215 88.0665 425.247 88.5434 426.215C89.6078 428.398 90.0346 430.838 89.7746 433.253C90.0793 427.469 92.2575 421.941 95.9804 417.504C96.9198 416.386 98.1154 415.269 99.5886 415.297C101.062 415.326 102.371 416.721 102.748 418.187C103.024 419.701 102.926 421.259 102.464 422.727C101.594 426.298 100.366 429.772 98.7986 433.096C100.144 431.403 110.997 425.98 113.125 426.371C115.971 426.841 112.05 431.652 102.627 434.114" stroke="#092C4E" stroke-width="2" stroke-linecap="round" stroke-linejoin="round"/>
<path d="M411.544 35.1281C410.869 35.144 410.213 34.8968 409.717 34.4387C409.22 33.9805 408.921 33.3474 408.882 32.6728C408.69 26.8584 415.359 22.5457 422.846 23.8338C425.892 24.3604 428.738 25.7197 431.564 26.9865C433.037 24.1398 436.318 19.9267 440.21 18.2827C457.646 10.9311 464.941 26.1112 464.941 26.1112C465.824 25.5083 466.807 25.0673 467.845 24.8088C478.52 22.4532 481.573 31.5697 480.776 35.1281C480.776 35.1281 425.706 34.7438 411.743 35.1281H411.544Z" fill="white"/>
<path d="M136.182 29.8754C138.808 20.1468 154.173 21.0079 156.963 22.2604C158.436 19.4137 162.977 15.222 170.008 14.3679C186.263 12.4108 190.234 23.2639 190.234 23.2639C190.234 23.2639 197.885 23.6553 198.418 29.9964C198.525 31.2703 197.707 32.6224 196.411 32.6082C186.633 32.5157 149.042 32.7292 138.488 32.6082C137.928 32.6178 137.383 32.4263 136.952 32.0685C136.522 31.7108 136.233 31.2104 136.14 30.6582C136.104 30.3969 136.119 30.1312 136.182 29.8754Z" fill="white"/>
</svg>
